<svg xmlns="http://www.w3.org/2000/svg" viewBox="30 72 540 648" role="img" aria-label="Illustration : les façades en pierre des quais des Chartrons à Bordeaux, le tram et la Garonne">
<defs>
<linearGradient id="q-sky" x1="0" y1="0" x2="0" y2="1"><stop offset="0" stop-color="#cfe5df"/><stop offset=".62" stop-color="#eaf1ea"/><stop offset="1" stop-color="#f8f2e7"/></linearGradient>
<linearGradient id="q-water" x1="0" y1="0" x2="0" y2="1"><stop offset="0" stop-color="#9ccbc1"/><stop offset="1" stop-color="#5f9f95"/></linearGradient>
<radialGradient id="q-sun" cx=".5" cy=".5" r=".5"><stop offset="0" stop-color="#f6cf7c" stop-opacity=".55"/><stop offset="1" stop-color="#f6cf7c" stop-opacity="0"/></radialGradient>
</defs>
<rect width="600" height="720" fill="url(#q-sky)"/>
<circle cx="196" cy="206" r="120" fill="url(#q-sun)"/><circle cx="196" cy="206" r="38" fill="#f3c66f"/>
<g fill="none" stroke="#1f3450" stroke-width="1.3" stroke-linecap="round" opacity=".55"><path d="M388 132q6-6 12 0q6-6 12 0"/><path d="M430 112q4-4 8 0q4-4 8 0"/><path d="M356 160q4-4 8 0q4-4 8 0"/></g>
<g><rect x="-14" y="348" width="120" height="212" fill="#fdfaf4" stroke="#1f3450" stroke-width="1.1"/><path d="M-16 343L-5 309H97L108 343Z" fill="#c3d2d9" stroke="#1f3450" stroke-width="1.1"/><path d="M-6 338V323Q1 314 8 323V338Z" fill="#fdfaf4" stroke="#1f3450" stroke-width=".9"/><rect x="-2.5" y="324" width="7" height="12" fill="#d6e6e8" stroke="#1f3450" stroke-width=".6"/><path d="M54 338V323Q61 314 68 323V338Z" fill="#fdfaf4" stroke="#1f3450" stroke-width=".9"/><rect x="57.5" y="324" width="7" height="12" fill="#d6e6e8" stroke="#1f3450" stroke-width=".6"/><rect x="0" y="295" width="11" height="15" fill="#fdfaf4" stroke="#1f3450" stroke-width="1"/><rect x="80" y="298" width="11" height="12" fill="#fdfaf4" stroke="#1f3450" stroke-width="1"/><rect x="-17" y="343" width="126" height="5" fill="#fdfaf4" stroke="#1f3450" stroke-width="1.1"/><rect x="-6" y="355" width="14" height="25" fill="#d6e6e8" stroke="#1f3450" stroke-width="1"/><path d="M1 357V380M-6 364.5H8M-6 372.5H8" stroke="#1f3450" stroke-width=".6" opacity=".7"/><path d="M-8 381.2H10" stroke="#1f3450" stroke-width="1.6"/><rect x="24" y="355" width="14" height="25" fill="#d6e6e8" stroke="#1f3450" stroke-width="1"/><path d="M31 357V380M24 364.5H38M24 372.5H38" stroke="#1f3450" stroke-width=".6" opacity=".7"/><path d="M22 381.2H40" stroke="#1f3450" stroke-width="1.6"/><rect x="54" y="355" width="14" height="25" fill="#d6e6e8" stroke="#1f3450" stroke-width="1"/><path d="M61 357V380M54 364.5H68M54 372.5H68" stroke="#1f3450" stroke-width=".6" opacity=".7"/><path d="M52 381.2H70" stroke="#1f3450" stroke-width="1.6"/><rect x="84" y="355" width="14" height="25" fill="#d6e6e8" stroke="#1f3450" stroke-width="1"/><path d="M91 357V380M84 364.5H98M84 372.5H98" stroke="#1f3450" stroke-width=".6" opacity=".7"/><path d="M82 381.2H100" stroke="#1f3450" stroke-width="1.6"/><path d="M-14 390H106" stroke="#1f3450" stroke-width="0.8"/><rect x="-6" y="397" width="14" height="33" fill="#d6e6e8" stroke="#1f3450" stroke-width="1"/><path d="M1 399V430M-6 409.5H8M-6 420.1H8" stroke="#1f3450" stroke-width=".6" opacity=".7"/><path d="M-8 431.2H10" stroke="#1f3450" stroke-width="1.6"/><rect x="24" y="397" width="14" height="33" fill="#d6e6e8" stroke="#1f3450" stroke-width="1"/><path d="M31 399V430M24 409.5H38M24 420.1H38" stroke="#1f3450" stroke-width=".6" opacity=".7"/><path d="M22 431.2H40" stroke="#1f3450" stroke-width="1.6"/><rect x="54" y="397" width="14" height="33" fill="#d6e6e8" stroke="#1f3450" stroke-width="1"/><path d="M61 399V430M54 409.5H68M54 420.1H68" stroke="#1f3450" stroke-width=".6" opacity=".7"/><path d="M52 431.2H70" stroke="#1f3450" stroke-width="1.6"/><rect x="84" y="397" width="14" height="33" fill="#d6e6e8" stroke="#1f3450" stroke-width="1"/><path d="M91 399V430M84 409.5H98M84 420.1H98" stroke="#1f3450" stroke-width=".6" opacity=".7"/><path d="M82 431.2H100" stroke="#1f3450" stroke-width="1.6"/><path d="M-14 440H106" stroke="#1f3450" stroke-width="0.8"/><path d="M-6 485V451Q1 444 8 451V485Z" fill="#d6e6e8" stroke="#1f3450" stroke-width="1"/><path d="M1 449V485M-6 461.4H8M-6 473.6H8" stroke="#1f3450" stroke-width=".6" opacity=".7"/><path d="M-8 486.2H10" stroke="#1f3450" stroke-width="1.6"/><path d="M24 485V451Q31 444 38 451V485Z" fill="#d6e6e8" stroke="#1f3450" stroke-width="1"/><path d="M31 449V485M24 461.4H38M24 473.6H38" stroke="#1f3450" stroke-width=".6" opacity=".7"/><path d="M22 486.2H40" stroke="#1f3450" stroke-width="1.6"/><path d="M54 485V451Q61 444 68 451V485Z" fill="#d6e6e8" stroke="#1f3450" stroke-width="1"/><path d="M61 449V485M54 461.4H68M54 473.6H68" stroke="#1f3450" stroke-width=".6" opacity=".7"/><path d="M52 486.2H70" stroke="#1f3450" stroke-width="1.6"/><path d="M84 485V451Q91 444 98 451V485Z" fill="#d6e6e8" stroke="#1f3450" stroke-width="1"/><path d="M91 449V485M84 461.4H98M84 473.6H98" stroke="#1f3450" stroke-width=".6" opacity=".7"/><path d="M82 486.2H100" stroke="#1f3450" stroke-width="1.6"/><path d="M50 476H72M50 485H72" stroke="#1f3450" stroke-width="1"/><path d="M52.5 476V485M55.7 476V485M58.9 476V485M62.1 476V485M65.3 476V485M68.5 476V485M71.7 476V485" stroke="#1f3450" stroke-width=".5" opacity=".8"/><path d="M-14 496H106" stroke="#1f3450" stroke-width="1.4"/><path d="M-14 499H106" stroke="#1f3450" stroke-width=".7" opacity=".7"/><path d="M-9 560V522A10 10 0 0 1 11 522V560" fill="#d6e6e8" stroke="#1f3450" stroke-width="1"/><path d="M-2 509H4L3 516H-1Z" fill="#fdfaf4" stroke="#1f3450" stroke-width=".8"/><path d="M1 514V560M-9 534H11" stroke="#1f3450" stroke-width=".6" opacity=".7"/><path d="M21 560V522A10 10 0 0 1 41 522V560" fill="#2c4565" stroke="#1f3450" stroke-width="1"/><path d="M28 509H34L33 516H29Z" fill="#fdfaf4" stroke="#1f3450" stroke-width=".8"/><path d="M51 560V522A10 10 0 0 1 71 522V560" fill="#d6e6e8" stroke="#1f3450" stroke-width="1"/><path d="M58 509H64L63 516H59Z" fill="#fdfaf4" stroke="#1f3450" stroke-width=".8"/><path d="M61 514V560M51 534H71" stroke="#1f3450" stroke-width=".6" opacity=".7"/><path d="M81 560V522A10 10 0 0 1 101 522V560" fill="#d6e6e8" stroke="#1f3450" stroke-width="1"/><path d="M88 509H94L93 516H89Z" fill="#fdfaf4" stroke="#1f3450" stroke-width=".8"/><path d="M91 514V560M81 534H101" stroke="#1f3450" stroke-width=".6" opacity=".7"/></g>
<g><rect x="106" y="304" width="90" height="256" fill="#f9f2e6" stroke="#1f3450" stroke-width="1.1"/><rect x="105" y="285" width="92" height="14" fill="#f9f2e6" stroke="#1f3450" stroke-width="1"/><path d="M111 288V296M117 288V296M123 288V296M129 288V296M135 288V296M141 288V296M147 288V296M153 288V296M159 288V296M165 288V296M171 288V296M177 288V296M183 288V296M189 288V296" stroke="#1f3450" stroke-width=".7" opacity=".75"/><rect x="103" y="299" width="96" height="5" fill="#f9f2e6" stroke="#1f3450" stroke-width="1.1"/><rect x="114" y="311" width="14" height="23" fill="#d6e6e8" stroke="#1f3450" stroke-width="1"/><path d="M121 313V334M114 319.7H128M114 327.1H128" stroke="#1f3450" stroke-width=".6" opacity=".7"/><path d="M112 335.2H130" stroke="#1f3450" stroke-width="1.6"/><rect x="144" y="311" width="14" height="23" fill="#d6e6e8" stroke="#1f3450" stroke-width="1"/><path d="M151 313V334M144 319.7H158M144 327.1H158" stroke="#1f3450" stroke-width=".6" opacity=".7"/><path d="M142 335.2H160" stroke="#1f3450" stroke-width="1.6"/><rect x="174" y="311" width="14" height="23" fill="#d6e6e8" stroke="#1f3450" stroke-width="1"/><path d="M181 313V334M174 319.7H188M174 327.1H188" stroke="#1f3450" stroke-width=".6" opacity=".7"/><path d="M172 335.2H190" stroke="#1f3450" stroke-width="1.6"/><path d="M106 344H196" stroke="#1f3450" stroke-width="0.8"/><rect x="114" y="351" width="14" height="29" fill="#d6e6e8" stroke="#1f3450" stroke-width="1"/><path d="M121 353V380M114 362H128M114 371.3H128" stroke="#1f3450" stroke-width=".6" opacity=".7"/><path d="M112 381.2H130" stroke="#1f3450" stroke-width="1.6"/><rect x="144" y="351" width="14" height="29" fill="#d6e6e8" stroke="#1f3450" stroke-width="1"/><path d="M151 353V380M144 362H158M144 371.3H158" stroke="#1f3450" stroke-width=".6" opacity=".7"/><path d="M142 381.2H160" stroke="#1f3450" stroke-width="1.6"/><rect x="174" y="351" width="14" height="29" fill="#d6e6e8" stroke="#1f3450" stroke-width="1"/><path d="M181 353V380M174 362H188M174 371.3H188" stroke="#1f3450" stroke-width=".6" opacity=".7"/><path d="M172 381.2H190" stroke="#1f3450" stroke-width="1.6"/><path d="M106 390H196" stroke="#1f3450" stroke-width="0.8"/><rect x="114" y="397" width="14" height="33" fill="#d6e6e8" stroke="#1f3450" stroke-width="1"/><path d="M121 399V430M114 409.5H128M114 420.1H128" stroke="#1f3450" stroke-width=".6" opacity=".7"/><path d="M112 431.2H130" stroke="#1f3450" stroke-width="1.6"/><rect x="144" y="397" width="14" height="33" fill="#d6e6e8" stroke="#1f3450" stroke-width="1"/><path d="M151 399V430M144 409.5H158M144 420.1H158" stroke="#1f3450" stroke-width=".6" opacity=".7"/><path d="M142 431.2H160" stroke="#1f3450" stroke-width="1.6"/><rect x="174" y="397" width="14" height="33" fill="#d6e6e8" stroke="#1f3450" stroke-width="1"/><path d="M181 399V430M174 409.5H188M174 420.1H188" stroke="#1f3450" stroke-width=".6" opacity=".7"/><path d="M172 431.2H190" stroke="#1f3450" stroke-width="1.6"/><path d="M106 440H196" stroke="#1f3450" stroke-width="0.8"/><path d="M114 485V451Q121 444 128 451V485Z" fill="#d6e6e8" stroke="#1f3450" stroke-width="1"/><path d="M121 449V485M114 461.4H128M114 473.6H128" stroke="#1f3450" stroke-width=".6" opacity=".7"/><path d="M112 486.2H130" stroke="#1f3450" stroke-width="1.6"/><path d="M144 485V451Q151 444 158 451V485Z" fill="#d6e6e8" stroke="#1f3450" stroke-width="1"/><path d="M151 449V485M144 461.4H158M144 473.6H158" stroke="#1f3450" stroke-width=".6" opacity=".7"/><path d="M142 486.2H160" stroke="#1f3450" stroke-width="1.6"/><path d="M174 485V451Q181 444 188 451V485Z" fill="#d6e6e8" stroke="#1f3450" stroke-width="1"/><path d="M181 449V485M174 461.4H188M174 473.6H188" stroke="#1f3450" stroke-width=".6" opacity=".7"/><path d="M172 486.2H190" stroke="#1f3450" stroke-width="1.6"/><path d="M110 476H192M110 485H192" stroke="#1f3450" stroke-width="1"/><path d="M112.5 476V485M115.7 476V485M118.9 476V485M122.1 476V485M125.3 476V485M128.5 476V485M131.7 476V485M134.9 476V485M138.1 476V485M141.3 476V485M144.5 476V485M147.7 476V485M150.9 476V485M154.1 476V485M157.3 476V485M160.5 476V485M163.7 476V485M166.9 476V485M170.1 476V485M173.3 476V485M176.5 476V485M179.7 476V485M182.9 476V485M186.1 476V485M189.3 476V485" stroke="#1f3450" stroke-width=".5" opacity=".8"/><path d="M106 496H196" stroke="#1f3450" stroke-width="1.4"/><path d="M106 499H196" stroke="#1f3450" stroke-width=".7" opacity=".7"/><path d="M111 560V522A10 10 0 0 1 131 522V560" fill="#d6e6e8" stroke="#1f3450" stroke-width="1"/><path d="M118 509H124L123 516H119Z" fill="#f9f2e6" stroke="#1f3450" stroke-width=".8"/><path d="M121 514V560M111 534H131" stroke="#1f3450" stroke-width=".6" opacity=".7"/><path d="M141 560V522A10 10 0 0 1 161 522V560" fill="#2c4565" stroke="#1f3450" stroke-width="1"/><path d="M148 509H154L153 516H149Z" fill="#f9f2e6" stroke="#1f3450" stroke-width=".8"/><path d="M171 560V522A10 10 0 0 1 191 522V560" fill="#d6e6e8" stroke="#1f3450" stroke-width="1"/><path d="M178 509H184L183 516H179Z" fill="#f9f2e6" stroke="#1f3450" stroke-width=".8"/><path d="M181 514V560M171 534H191" stroke="#1f3450" stroke-width=".6" opacity=".7"/></g>
<g><rect x="196" y="390" width="150" height="170" fill="#fcf6ec" stroke="#1f3450" stroke-width="1.1"/><path d="M194 385L205 351H337L348 385Z" fill="#c3d2d9" stroke="#1f3450" stroke-width="1.1"/><path d="M204 380V365Q211 356 218 365V380Z" fill="#fcf6ec" stroke="#1f3450" stroke-width=".9"/><rect x="207.5" y="366" width="7" height="12" fill="#d6e6e8" stroke="#1f3450" stroke-width=".6"/><path d="M264 380V365Q271 356 278 365V380Z" fill="#fcf6ec" stroke="#1f3450" stroke-width=".9"/><rect x="267.5" y="366" width="7" height="12" fill="#d6e6e8" stroke="#1f3450" stroke-width=".6"/><path d="M324 380V365Q331 356 338 365V380Z" fill="#fcf6ec" stroke="#1f3450" stroke-width=".9"/><rect x="327.5" y="366" width="7" height="12" fill="#d6e6e8" stroke="#1f3450" stroke-width=".6"/><rect x="210" y="337" width="11" height="15" fill="#fcf6ec" stroke="#1f3450" stroke-width="1"/><rect x="320" y="340" width="11" height="12" fill="#fcf6ec" stroke="#1f3450" stroke-width="1"/><rect x="193" y="385" width="156" height="5" fill="#fcf6ec" stroke="#1f3450" stroke-width="1.1"/><rect x="204" y="397" width="14" height="31" fill="#d6e6e8" stroke="#1f3450" stroke-width="1"/><path d="M211 399V428M204 408.8H218M204 418.7H218" stroke="#1f3450" stroke-width=".6" opacity=".7"/><path d="M202 429.2H220" stroke="#1f3450" stroke-width="1.6"/><rect x="234" y="397" width="14" height="31" fill="#d6e6e8" stroke="#1f3450" stroke-width="1"/><path d="M241 399V428M234 408.8H248M234 418.7H248" stroke="#1f3450" stroke-width=".6" opacity=".7"/><path d="M232 429.2H250" stroke="#1f3450" stroke-width="1.6"/><rect x="264" y="397" width="14" height="31" fill="#d6e6e8" stroke="#1f3450" stroke-width="1"/><path d="M271 399V428M264 408.8H278M264 418.7H278" stroke="#1f3450" stroke-width=".6" opacity=".7"/><path d="M262 429.2H280" stroke="#1f3450" stroke-width="1.6"/><rect x="294" y="397" width="14" height="31" fill="#d6e6e8" stroke="#1f3450" stroke-width="1"/><path d="M301 399V428M294 408.8H308M294 418.7H308" stroke="#1f3450" stroke-width=".6" opacity=".7"/><path d="M292 429.2H310" stroke="#1f3450" stroke-width="1.6"/><rect x="324" y="397" width="14" height="31" fill="#d6e6e8" stroke="#1f3450" stroke-width="1"/><path d="M331 399V428M324 408.8H338M324 418.7H338" stroke="#1f3450" stroke-width=".6" opacity=".7"/><path d="M322 429.2H340" stroke="#1f3450" stroke-width="1.6"/><path d="M196 438H346" stroke="#1f3450" stroke-width="0.8"/><path d="M204 485V449Q211 442 218 449V485Z" fill="#d6e6e8" stroke="#1f3450" stroke-width="1"/><path d="M211 447V485M204 460.2H218M204 473H218" stroke="#1f3450" stroke-width=".6" opacity=".7"/><path d="M202 486.2H220" stroke="#1f3450" stroke-width="1.6"/><path d="M234 485V449Q241 442 248 449V485Z" fill="#d6e6e8" stroke="#1f3450" stroke-width="1"/><path d="M241 447V485M234 460.2H248M234 473H248" stroke="#1f3450" stroke-width=".6" opacity=".7"/><path d="M232 486.2H250" stroke="#1f3450" stroke-width="1.6"/><path d="M264 485V449Q271 442 278 449V485Z" fill="#d6e6e8" stroke="#1f3450" stroke-width="1"/><path d="M271 447V485M264 460.2H278M264 473H278" stroke="#1f3450" stroke-width=".6" opacity=".7"/><path d="M262 486.2H280" stroke="#1f3450" stroke-width="1.6"/><path d="M294 485V449Q301 442 308 449V485Z" fill="#d6e6e8" stroke="#1f3450" stroke-width="1"/><path d="M301 447V485M294 460.2H308M294 473H308" stroke="#1f3450" stroke-width=".6" opacity=".7"/><path d="M292 486.2H310" stroke="#1f3450" stroke-width="1.6"/><path d="M324 485V449Q331 442 338 449V485Z" fill="#d6e6e8" stroke="#1f3450" stroke-width="1"/><path d="M331 447V485M324 460.2H338M324 473H338" stroke="#1f3450" stroke-width=".6" opacity=".7"/><path d="M322 486.2H340" stroke="#1f3450" stroke-width="1.6"/><path d="M200 476H342M200 485H342" stroke="#1f3450" stroke-width="1"/><path d="M202.5 476V485M205.7 476V485M208.9 476V485M212.1 476V485M215.3 476V485M218.5 476V485M221.7 476V485M224.9 476V485M228.1 476V485M231.3 476V485M234.5 476V485M237.7 476V485M240.9 476V485M244.1 476V485M247.3 476V485M250.5 476V485M253.7 476V485M256.9 476V485M260.1 476V485M263.3 476V485M266.5 476V485M269.7 476V485M272.9 476V485M276.1 476V485M279.3 476V485M282.5 476V485M285.7 476V485M288.9 476V485M292.1 476V485M295.3 476V485M298.5 476V485M301.7 476V485M304.9 476V485M308.1 476V485M311.3 476V485M314.5 476V485M317.7 476V485M320.9 476V485M324.1 476V485M327.3 476V485M330.5 476V485M333.7 476V485M336.9 476V485M340.1 476V485" stroke="#1f3450" stroke-width=".5" opacity=".8"/><path d="M196 496H346" stroke="#1f3450" stroke-width="1.4"/><path d="M196 499H346" stroke="#1f3450" stroke-width=".7" opacity=".7"/><path d="M201 560V522A10 10 0 0 1 221 522V560" fill="#d6e6e8" stroke="#1f3450" stroke-width="1"/><path d="M208 509H214L213 516H209Z" fill="#fcf6ec" stroke="#1f3450" stroke-width=".8"/><path d="M211 514V560M201 534H221" stroke="#1f3450" stroke-width=".6" opacity=".7"/><path d="M231 560V522A10 10 0 0 1 251 522V560" fill="#d6e6e8" stroke="#1f3450" stroke-width="1"/><path d="M238 509H244L243 516H239Z" fill="#fcf6ec" stroke="#1f3450" stroke-width=".8"/><path d="M241 514V560M231 534H251" stroke="#1f3450" stroke-width=".6" opacity=".7"/><path d="M261 560V522A10 10 0 0 1 281 522V560" fill="#2c4565" stroke="#1f3450" stroke-width="1"/><path d="M268 509H274L273 516H269Z" fill="#fcf6ec" stroke="#1f3450" stroke-width=".8"/><path d="M291 560V522A10 10 0 0 1 311 522V560" fill="#d6e6e8" stroke="#1f3450" stroke-width="1"/><path d="M298 509H304L303 516H299Z" fill="#fcf6ec" stroke="#1f3450" stroke-width=".8"/><path d="M301 514V560M291 534H311" stroke="#1f3450" stroke-width=".6" opacity=".7"/><path d="M321 560V522A10 10 0 0 1 341 522V560" fill="#d6e6e8" stroke="#1f3450" stroke-width="1"/><path d="M328 509H334L333 516H329Z" fill="#fcf6ec" stroke="#1f3450" stroke-width=".8"/><path d="M331 514V560M321 534H341" stroke="#1f3450" stroke-width=".6" opacity=".7"/></g>
<g><rect x="346" y="302" width="90" height="258" fill="#f7efe1" stroke="#1f3450" stroke-width="1.1"/><path d="M344 297L355 263H427L438 297Z" fill="#c3d2d9" stroke="#1f3450" stroke-width="1.1"/><path d="M354 292V277Q361 268 368 277V292Z" fill="#f7efe1" stroke="#1f3450" stroke-width=".9"/><rect x="357.5" y="278" width="7" height="12" fill="#d6e6e8" stroke="#1f3450" stroke-width=".6"/><path d="M384 292V277Q391 268 398 277V292Z" fill="#f7efe1" stroke="#1f3450" stroke-width=".9"/><rect x="387.5" y="278" width="7" height="12" fill="#d6e6e8" stroke="#1f3450" stroke-width=".6"/><path d="M414 292V277Q421 268 428 277V292Z" fill="#f7efe1" stroke="#1f3450" stroke-width=".9"/><rect x="417.5" y="278" width="7" height="12" fill="#d6e6e8" stroke="#1f3450" stroke-width=".6"/><rect x="360" y="249" width="11" height="15" fill="#f7efe1" stroke="#1f3450" stroke-width="1"/><rect x="410" y="252" width="11" height="12" fill="#f7efe1" stroke="#1f3450" stroke-width="1"/><rect x="343" y="297" width="96" height="5" fill="#f7efe1" stroke="#1f3450" stroke-width="1.1"/><rect x="354" y="309" width="14" height="23" fill="#d6e6e8" stroke="#1f3450" stroke-width="1"/><path d="M361 311V332M354 317.7H368M354 325.1H368" stroke="#1f3450" stroke-width=".6" opacity=".7"/><path d="M352 333.2H370" stroke="#1f3450" stroke-width="1.6"/><rect x="384" y="309" width="14" height="23" fill="#d6e6e8" stroke="#1f3450" stroke-width="1"/><path d="M391 311V332M384 317.7H398M384 325.1H398" stroke="#1f3450" stroke-width=".6" opacity=".7"/><path d="M382 333.2H400" stroke="#1f3450" stroke-width="1.6"/><rect x="414" y="309" width="14" height="23" fill="#d6e6e8" stroke="#1f3450" stroke-width="1"/><path d="M421 311V332M414 317.7H428M414 325.1H428" stroke="#1f3450" stroke-width=".6" opacity=".7"/><path d="M412 333.2H430" stroke="#1f3450" stroke-width="1.6"/><path d="M346 342H436" stroke="#1f3450" stroke-width="0.8"/><rect x="354" y="349" width="14" height="29" fill="#d6e6e8" stroke="#1f3450" stroke-width="1"/><path d="M361 351V378M354 360H368M354 369.3H368" stroke="#1f3450" stroke-width=".6" opacity=".7"/><path d="M352 379.2H370" stroke="#1f3450" stroke-width="1.6"/><rect x="384" y="349" width="14" height="29" fill="#d6e6e8" stroke="#1f3450" stroke-width="1"/><path d="M391 351V378M384 360H398M384 369.3H398" stroke="#1f3450" stroke-width=".6" opacity=".7"/><path d="M382 379.2H400" stroke="#1f3450" stroke-width="1.6"/><rect x="414" y="349" width="14" height="29" fill="#d6e6e8" stroke="#1f3450" stroke-width="1"/><path d="M421 351V378M414 360H428M414 369.3H428" stroke="#1f3450" stroke-width=".6" opacity=".7"/><path d="M412 379.2H430" stroke="#1f3450" stroke-width="1.6"/><path d="M346 388H436" stroke="#1f3450" stroke-width="0.8"/><rect x="354" y="395" width="14" height="35" fill="#d6e6e8" stroke="#1f3450" stroke-width="1"/><path d="M361 397V430M354 408.3H368M354 419.5H368" stroke="#1f3450" stroke-width=".6" opacity=".7"/><path d="M352 431.2H370" stroke="#1f3450" stroke-width="1.6"/><rect x="384" y="395" width="14" height="35" fill="#d6e6e8" stroke="#1f3450" stroke-width="1"/><path d="M391 397V430M384 408.3H398M384 419.5H398" stroke="#1f3450" stroke-width=".6" opacity=".7"/><path d="M382 431.2H400" stroke="#1f3450" stroke-width="1.6"/><rect x="414" y="395" width="14" height="35" fill="#d6e6e8" stroke="#1f3450" stroke-width="1"/><path d="M421 397V430M414 408.3H428M414 419.5H428" stroke="#1f3450" stroke-width=".6" opacity=".7"/><path d="M412 431.2H430" stroke="#1f3450" stroke-width="1.6"/><path d="M346 440H436" stroke="#1f3450" stroke-width="0.8"/><path d="M354 485V451Q361 444 368 451V485Z" fill="#d6e6e8" stroke="#1f3450" stroke-width="1"/><path d="M361 449V485M354 461.4H368M354 473.6H368" stroke="#1f3450" stroke-width=".6" opacity=".7"/><path d="M352 486.2H370" stroke="#1f3450" stroke-width="1.6"/><path d="M384 485V451Q391 444 398 451V485Z" fill="#d6e6e8" stroke="#1f3450" stroke-width="1"/><path d="M391 449V485M384 461.4H398M384 473.6H398" stroke="#1f3450" stroke-width=".6" opacity=".7"/><path d="M382 486.2H400" stroke="#1f3450" stroke-width="1.6"/><path d="M414 485V451Q421 444 428 451V485Z" fill="#d6e6e8" stroke="#1f3450" stroke-width="1"/><path d="M421 449V485M414 461.4H428M414 473.6H428" stroke="#1f3450" stroke-width=".6" opacity=".7"/><path d="M412 486.2H430" stroke="#1f3450" stroke-width="1.6"/><path d="M380 476H402M380 485H402" stroke="#1f3450" stroke-width="1"/><path d="M382.5 476V485M385.7 476V485M388.9 476V485M392.1 476V485M395.3 476V485M398.5 476V485M401.7 476V485" stroke="#1f3450" stroke-width=".5" opacity=".8"/><path d="M346 496H436" stroke="#1f3450" stroke-width="1.4"/><path d="M346 499H436" stroke="#1f3450" stroke-width=".7" opacity=".7"/><path d="M351 560V522A10 10 0 0 1 371 522V560" fill="#2c4565" stroke="#1f3450" stroke-width="1"/><path d="M358 509H364L363 516H359Z" fill="#f7efe1" stroke="#1f3450" stroke-width=".8"/><path d="M381 560V522A10 10 0 0 1 401 522V560" fill="#d6e6e8" stroke="#1f3450" stroke-width="1"/><path d="M388 509H394L393 516H389Z" fill="#f7efe1" stroke="#1f3450" stroke-width=".8"/><path d="M391 514V560M381 534H401" stroke="#1f3450" stroke-width=".6" opacity=".7"/><path d="M411 560V522A10 10 0 0 1 431 522V560" fill="#d6e6e8" stroke="#1f3450" stroke-width="1"/><path d="M418 509H424L423 516H419Z" fill="#f7efe1" stroke="#1f3450" stroke-width=".8"/><path d="M421 514V560M411 534H431" stroke="#1f3450" stroke-width=".6" opacity=".7"/></g>
<g><rect x="436" y="344" width="120" height="216" fill="#fbf5ea" stroke="#1f3450" stroke-width="1.1"/><rect x="435" y="325" width="122" height="14" fill="#fbf5ea" stroke="#1f3450" stroke-width="1"/><path d="M441 328V336M447 328V336M453 328V336M459 328V336M465 328V336M471 328V336M477 328V336M483 328V336M489 328V336M495 328V336M501 328V336M507 328V336M513 328V336M519 328V336M525 328V336M531 328V336M537 328V336M543 328V336M549 328V336" stroke="#1f3450" stroke-width=".7" opacity=".75"/><rect x="433" y="339" width="126" height="5" fill="#fbf5ea" stroke="#1f3450" stroke-width="1.1"/><rect x="444" y="351" width="14" height="27" fill="#d6e6e8" stroke="#1f3450" stroke-width="1"/><path d="M451 353V378M444 361.3H458M444 369.9H458" stroke="#1f3450" stroke-width=".6" opacity=".7"/><path d="M442 379.2H460" stroke="#1f3450" stroke-width="1.6"/><rect x="474" y="351" width="14" height="27" fill="#d6e6e8" stroke="#1f3450" stroke-width="1"/><path d="M481 353V378M474 361.3H488M474 369.9H488" stroke="#1f3450" stroke-width=".6" opacity=".7"/><path d="M472 379.2H490" stroke="#1f3450" stroke-width="1.6"/><rect x="504" y="351" width="14" height="27" fill="#d6e6e8" stroke="#1f3450" stroke-width="1"/><path d="M511 353V378M504 361.3H518M504 369.9H518" stroke="#1f3450" stroke-width=".6" opacity=".7"/><path d="M502 379.2H520" stroke="#1f3450" stroke-width="1.6"/><rect x="534" y="351" width="14" height="27" fill="#d6e6e8" stroke="#1f3450" stroke-width="1"/><path d="M541 353V378M534 361.3H548M534 369.9H548" stroke="#1f3450" stroke-width=".6" opacity=".7"/><path d="M532 379.2H550" stroke="#1f3450" stroke-width="1.6"/><path d="M436 388H556" stroke="#1f3450" stroke-width="0.8"/><rect x="444" y="395" width="14" height="33" fill="#d6e6e8" stroke="#1f3450" stroke-width="1"/><path d="M451 397V428M444 407.5H458M444 418.1H458" stroke="#1f3450" stroke-width=".6" opacity=".7"/><path d="M442 429.2H460" stroke="#1f3450" stroke-width="1.6"/><rect x="474" y="395" width="14" height="33" fill="#d6e6e8" stroke="#1f3450" stroke-width="1"/><path d="M481 397V428M474 407.5H488M474 418.1H488" stroke="#1f3450" stroke-width=".6" opacity=".7"/><path d="M472 429.2H490" stroke="#1f3450" stroke-width="1.6"/><rect x="504" y="395" width="14" height="33" fill="#d6e6e8" stroke="#1f3450" stroke-width="1"/><path d="M511 397V428M504 407.5H518M504 418.1H518" stroke="#1f3450" stroke-width=".6" opacity=".7"/><path d="M502 429.2H520" stroke="#1f3450" stroke-width="1.6"/><rect x="534" y="395" width="14" height="33" fill="#d6e6e8" stroke="#1f3450" stroke-width="1"/><path d="M541 397V428M534 407.5H548M534 418.1H548" stroke="#1f3450" stroke-width=".6" opacity=".7"/><path d="M532 429.2H550" stroke="#1f3450" stroke-width="1.6"/><path d="M436 438H556" stroke="#1f3450" stroke-width="0.8"/><path d="M444 485V449Q451 442 458 449V485Z" fill="#d6e6e8" stroke="#1f3450" stroke-width="1"/><path d="M451 447V485M444 460.2H458M444 473H458" stroke="#1f3450" stroke-width=".6" opacity=".7"/><path d="M442 486.2H460" stroke="#1f3450" stroke-width="1.6"/><path d="M474 485V449Q481 442 488 449V485Z" fill="#d6e6e8" stroke="#1f3450" stroke-width="1"/><path d="M481 447V485M474 460.2H488M474 473H488" stroke="#1f3450" stroke-width=".6" opacity=".7"/><path d="M472 486.2H490" stroke="#1f3450" stroke-width="1.6"/><path d="M504 485V449Q511 442 518 449V485Z" fill="#d6e6e8" stroke="#1f3450" stroke-width="1"/><path d="M511 447V485M504 460.2H518M504 473H518" stroke="#1f3450" stroke-width=".6" opacity=".7"/><path d="M502 486.2H520" stroke="#1f3450" stroke-width="1.6"/><path d="M534 485V449Q541 442 548 449V485Z" fill="#d6e6e8" stroke="#1f3450" stroke-width="1"/><path d="M541 447V485M534 460.2H548M534 473H548" stroke="#1f3450" stroke-width=".6" opacity=".7"/><path d="M532 486.2H550" stroke="#1f3450" stroke-width="1.6"/><path d="M440 476H552M440 485H552" stroke="#1f3450" stroke-width="1"/><path d="M442.5 476V485M445.7 476V485M448.9 476V485M452.1 476V485M455.3 476V485M458.5 476V485M461.7 476V485M464.9 476V485M468.1 476V485M471.3 476V485M474.5 476V485M477.7 476V485M480.9 476V485M484.1 476V485M487.3 476V485M490.5 476V485M493.7 476V485M496.9 476V485M500.1 476V485M503.3 476V485M506.5 476V485M509.7 476V485M512.9 476V485M516.1 476V485M519.3 476V485M522.5 476V485M525.7 476V485M528.9 476V485M532.1 476V485M535.3 476V485M538.5 476V485M541.7 476V485M544.9 476V485M548.1 476V485M551.3 476V485" stroke="#1f3450" stroke-width=".5" opacity=".8"/><path d="M436 496H556" stroke="#1f3450" stroke-width="1.4"/><path d="M436 499H556" stroke="#1f3450" stroke-width=".7" opacity=".7"/><path d="M441 560V522A10 10 0 0 1 461 522V560" fill="#d6e6e8" stroke="#1f3450" stroke-width="1"/><path d="M448 509H454L453 516H449Z" fill="#fbf5ea" stroke="#1f3450" stroke-width=".8"/><path d="M451 514V560M441 534H461" stroke="#1f3450" stroke-width=".6" opacity=".7"/><path d="M471 560V522A10 10 0 0 1 491 522V560" fill="#d6e6e8" stroke="#1f3450" stroke-width="1"/><path d="M478 509H484L483 516H479Z" fill="#fbf5ea" stroke="#1f3450" stroke-width=".8"/><path d="M481 514V560M471 534H491" stroke="#1f3450" stroke-width=".6" opacity=".7"/><path d="M501 560V522A10 10 0 0 1 521 522V560" fill="#2c4565" stroke="#1f3450" stroke-width="1"/><path d="M508 509H514L513 516H509Z" fill="#fbf5ea" stroke="#1f3450" stroke-width=".8"/><path d="M531 560V522A10 10 0 0 1 551 522V560" fill="#d6e6e8" stroke="#1f3450" stroke-width="1"/><path d="M538 509H544L543 516H539Z" fill="#fbf5ea" stroke="#1f3450" stroke-width=".8"/><path d="M541 514V560M531 534H551" stroke="#1f3450" stroke-width=".6" opacity=".7"/></g>
<g><rect x="556" y="350" width="90" height="210" fill="#f8f0e3" stroke="#1f3450" stroke-width="1.1"/><path d="M554 345L565 311H637L648 345Z" fill="#c3d2d9" stroke="#1f3450" stroke-width="1.1"/><path d="M564 340V325Q571 316 578 325V340Z" fill="#f8f0e3" stroke="#1f3450" stroke-width=".9"/><rect x="567.5" y="326" width="7" height="12" fill="#d6e6e8" stroke="#1f3450" stroke-width=".6"/><path d="M594 340V325Q601 316 608 325V340Z" fill="#f8f0e3" stroke="#1f3450" stroke-width=".9"/><rect x="597.5" y="326" width="7" height="12" fill="#d6e6e8" stroke="#1f3450" stroke-width=".6"/><path d="M624 340V325Q631 316 638 325V340Z" fill="#f8f0e3" stroke="#1f3450" stroke-width=".9"/><rect x="627.5" y="326" width="7" height="12" fill="#d6e6e8" stroke="#1f3450" stroke-width=".6"/><rect x="570" y="297" width="11" height="15" fill="#f8f0e3" stroke="#1f3450" stroke-width="1"/><rect x="620" y="300" width="11" height="12" fill="#f8f0e3" stroke="#1f3450" stroke-width="1"/><rect x="553" y="345" width="96" height="5" fill="#f8f0e3" stroke="#1f3450" stroke-width="1.1"/><rect x="564" y="357" width="14" height="25" fill="#d6e6e8" stroke="#1f3450" stroke-width="1"/><path d="M571 359V382M564 366.5H578M564 374.5H578" stroke="#1f3450" stroke-width=".6" opacity=".7"/><path d="M562 383.2H580" stroke="#1f3450" stroke-width="1.6"/><rect x="594" y="357" width="14" height="25" fill="#d6e6e8" stroke="#1f3450" stroke-width="1"/><path d="M601 359V382M594 366.5H608M594 374.5H608" stroke="#1f3450" stroke-width=".6" opacity=".7"/><path d="M592 383.2H610" stroke="#1f3450" stroke-width="1.6"/><rect x="624" y="357" width="14" height="25" fill="#d6e6e8" stroke="#1f3450" stroke-width="1"/><path d="M631 359V382M624 366.5H638M624 374.5H638" stroke="#1f3450" stroke-width=".6" opacity=".7"/><path d="M622 383.2H640" stroke="#1f3450" stroke-width="1.6"/><path d="M556 392H646" stroke="#1f3450" stroke-width="0.8"/><rect x="564" y="399" width="14" height="31" fill="#d6e6e8" stroke="#1f3450" stroke-width="1"/><path d="M571 401V430M564 410.8H578M564 420.7H578" stroke="#1f3450" stroke-width=".6" opacity=".7"/><path d="M562 431.2H580" stroke="#1f3450" stroke-width="1.6"/><rect x="594" y="399" width="14" height="31" fill="#d6e6e8" stroke="#1f3450" stroke-width="1"/><path d="M601 401V430M594 410.8H608M594 420.7H608" stroke="#1f3450" stroke-width=".6" opacity=".7"/><path d="M592 431.2H610" stroke="#1f3450" stroke-width="1.6"/><rect x="624" y="399" width="14" height="31" fill="#d6e6e8" stroke="#1f3450" stroke-width="1"/><path d="M631 401V430M624 410.8H638M624 420.7H638" stroke="#1f3450" stroke-width=".6" opacity=".7"/><path d="M622 431.2H640" stroke="#1f3450" stroke-width="1.6"/><path d="M556 440H646" stroke="#1f3450" stroke-width="0.8"/><path d="M564 485V451Q571 444 578 451V485Z" fill="#d6e6e8" stroke="#1f3450" stroke-width="1"/><path d="M571 449V485M564 461.4H578M564 473.6H578" stroke="#1f3450" stroke-width=".6" opacity=".7"/><path d="M562 486.2H580" stroke="#1f3450" stroke-width="1.6"/><path d="M594 485V451Q601 444 608 451V485Z" fill="#d6e6e8" stroke="#1f3450" stroke-width="1"/><path d="M601 449V485M594 461.4H608M594 473.6H608" stroke="#1f3450" stroke-width=".6" opacity=".7"/><path d="M592 486.2H610" stroke="#1f3450" stroke-width="1.6"/><path d="M624 485V451Q631 444 638 451V485Z" fill="#d6e6e8" stroke="#1f3450" stroke-width="1"/><path d="M631 449V485M624 461.4H638M624 473.6H638" stroke="#1f3450" stroke-width=".6" opacity=".7"/><path d="M622 486.2H640" stroke="#1f3450" stroke-width="1.6"/><path d="M590 476H612M590 485H612" stroke="#1f3450" stroke-width="1"/><path d="M592.5 476V485M595.7 476V485M598.9 476V485M602.1 476V485M605.3 476V485M608.5 476V485M611.7 476V485" stroke="#1f3450" stroke-width=".5" opacity=".8"/><path d="M556 496H646" stroke="#1f3450" stroke-width="1.4"/><path d="M556 499H646" stroke="#1f3450" stroke-width=".7" opacity=".7"/><path d="M561 560V522A10 10 0 0 1 581 522V560" fill="#d6e6e8" stroke="#1f3450" stroke-width="1"/><path d="M568 509H574L573 516H569Z" fill="#f8f0e3" stroke="#1f3450" stroke-width=".8"/><path d="M571 514V560M561 534H581" stroke="#1f3450" stroke-width=".6" opacity=".7"/><path d="M591 560V522A10 10 0 0 1 611 522V560" fill="#2c4565" stroke="#1f3450" stroke-width="1"/><path d="M598 509H604L603 516H599Z" fill="#f8f0e3" stroke="#1f3450" stroke-width=".8"/><path d="M621 560V522A10 10 0 0 1 641 522V560" fill="#d6e6e8" stroke="#1f3450" stroke-width="1"/><path d="M628 509H634L633 516H629Z" fill="#f8f0e3" stroke="#1f3450" stroke-width=".8"/><path d="M631 514V560M621 534H641" stroke="#1f3450" stroke-width=".6" opacity=".7"/></g>
<rect x="0" y="560" width="600" height="54" fill="#efe6d7"/>
<path d="M0 560H600" stroke="#1f3450" stroke-width="1.2"/>
<path d="M0 598H600M0 602H600" stroke="#1f3450" stroke-width=".7" opacity=".45"/>
<g stroke="#1f3450" fill="none" stroke-width="1.2"><path d="M74 606V538"/><path d="M70 606H78"/><path d="M69 538H79L77 524H71Z" fill="#fbe3a6"/><path d="M71 524L74 519L77 524"/></g>
<g stroke="#1f3450" fill="none" stroke-width="1.2"><path d="M518 606V538"/><path d="M514 606H522"/><path d="M513 538H523L521 524H515Z" fill="#fbe3a6"/><path d="M515 524L518 519L521 524"/></g>
<g><path d="M196 598V564Q196 554 206 554H438Q458 554 464 572V598Z" fill="#ffffff" stroke="#1f3450" stroke-width="1.2"/><path d="M202 562H440Q454 562 459 576H202Z" fill="#2c4565"/><path d="M222 562V576M244 562V576M266 562V576M288 562V576M310 562V576M332 562V576M354 562V576M376 562V576M398 562V576M420 562V576M442 562V576" stroke="#ffffff" stroke-width="1.6"/><rect x="196" y="589" width="268" height="4" fill="#0d7a69"/><rect x="236" y="578" width="14" height="11" fill="none" stroke="#1f3450" stroke-width=".8"/><rect x="316" y="578" width="14" height="11" fill="none" stroke="#1f3450" stroke-width=".8"/><rect x="396" y="578" width="14" height="11" fill="none" stroke="#1f3450" stroke-width=".8"/><path d="M328 554V598" stroke="#1f3450" stroke-width="1"/></g>
<rect x="0" y="614" width="600" height="106" fill="url(#q-water)"/>
<rect x="0" y="610" width="600" height="8" fill="#e3d7c3" stroke="#1f3450" stroke-width="1"/>
<path d="M0 628h30M66 628h30M132 628h30M198 628h30M264 628h30M330 628h30M396 628h30M462 628h30M528 628h30M594 628h30M-22 648h44M74.8 648h44M171.6 648h44M268.4 648h44M365.2 648h44M462 648h44M558.8 648h44M-6 668h60M126 668h60M258 668h60M390 668h60M522 668h60M-30 690h80M146 690h80M322 690h80M498 690h80M-12 710h110M230 710h110M472 710h110" stroke="#ffffff" stroke-width="1.4" stroke-linecap="round" opacity=".55"/>
<path d="M176 632h44M166 652h60M180 672h34M158 694h72" stroke="#f6d48c" stroke-width="2" stroke-linecap="round" opacity=".8"/>
</svg>